<?xml version="1.0" standalone="no"?>
<!DOCTYPE svg PUBLIC "-//W3C//DTD SVG 20010904//EN"
 "http://www.w3.org/TR/2001/REC-SVG-20010904/DTD/svg10.dtd">
<svg version="1.0" xmlns="http://www.w3.org/2000/svg"
 width="224.000000pt" height="231.000000pt" viewBox="0 0 224.000000 231.000000"
 preserveAspectRatio="xMidYMid meet">

<g transform="translate(0.000000,231.000000) scale(0.100000,-0.100000)"
fill="#000000" stroke="none">
<path d="M845 2262 c-1 -2 -170 -3 -374 -3 -246 0 -371 -4 -369 -10 2 -6 17
-18 33 -26 17 -9 37 -20 45 -24 8 -5 35 -20 60 -33 25 -13 92 -49 148 -80
l104 -56 173 0 174 0 0 -47 c0 -73 5 -117 14 -131 6 -8 2 -21 -9 -33 -15 -17
-16 -26 -7 -62 6 -23 8 -48 3 -56 -4 -8 -6 -58 -3 -111 4 -74 3 -98 -8 -107
-8 -6 -81 -32 -164 -57 -146 -46 -163 -52 -154 -60 2 -2 76 -28 164 -57 l160
-54 0 -240 0 -240 118 -356 c64 -195 117 -360 117 -367 0 -7 5 -12 10 -12 15
0 13 1670 -2 1727 -7 30 -7 91 0 210 8 115 8 171 1 180 -6 6 -8 21 -4 33 4 11
4 33 0 48 l-6 28 -110 0 c-61 -1 -112 -2 -114 -4z"/>
<path d="M1366 2263 c-4 -5 -47 -6 -95 -5 -70 3 -90 1 -100 -12 -11 -13 -14
-226 -19 -1111 -3 -675 -1 -1095 4 -1095 7 0 423 1222 580 1705 56 172 108
325 138 406 19 53 32 99 29 102 -5 6 -16 -15 -127 -243 -36 -74 -105 -210
-153 -302 -48 -91 -115 -221 -148 -287 -33 -66 -63 -121 -66 -121 -6 0 -13
445 -10 633 1 64 -2 117 -6 117 -17 0 -41 56 -39 88 5 50 13 48 20 -7 10 -79
23 -68 31 24 5 62 3 90 -5 100 -14 17 -23 19 -34 8z"/>
</g>
</svg>
